<svg xmlns="http://www.w3.org/2000/svg" width="1280" height="640" viewBox="0 0 1280 640">
  <!--
    cfbseedR social card, 1280x640. Part of the SportsDataverse card family:
    gradient field in the package's own brand color, a sport motif watermark,
    the wordmark, a tagline, and the gold-topped footer bar carrying the URL.
    Generated by make_cards.py; edit the config there and re-render rather
    than hand-editing this file.
  -->
  <defs>
    <linearGradient id="field" x1="0" y1="0" x2="0" y2="1">
      <stop offset="0%" stop-color="#12243A"/>
      <stop offset="100%" stop-color="#0B1622"/>
    </linearGradient>
    <radialGradient id="focus" cx="50%" cy="39%" r="62%">
      <stop offset="0%" stop-color="#0B1622" stop-opacity="0.86"/>
      <stop offset="100%" stop-color="#0B1622" stop-opacity="0"/>
    </radialGradient>
  </defs>

  <rect width="1280" height="640" fill="url(#field)"/>

  <!-- motif sits back so the type leads; it fought the tagline at 0.45 -->
  <g opacity="0.32">
    <g stroke="#41566B" stroke-width="9" fill="none" stroke-linecap="round" stroke-linejoin="round">
    <path d="M150,150 H250 V190 H150 M250,170 H350"/>
    <path d="M150,250 H250 V290 H150 M250,270 H350"/>
    <path d="M150,350 H250 V390 H150 M250,370 H350"/>
    <path d="M150,450 H250 V490 H150 M250,470 H350"/>
    <path d="M350,170 V270 M350,220 H470"/>
    <path d="M350,370 V470 M350,420 H470"/>
    <path d="M470,220 V420 M470,320 H600"/>
    <path d="M1130,150 H1030 V190 H1130 M1030,170 H930"/>
    <path d="M1130,250 H1030 V290 H1130 M1030,270 H930"/>
    <path d="M1130,350 H1030 V390 H1130 M1030,370 H930"/>
    <path d="M1130,450 H1030 V490 H1130 M1030,470 H930"/>
    <path d="M930,170 V270 M930,220 H810"/>
    <path d="M930,370 V470 M930,420 H810"/>
    <path d="M810,220 V420 M810,320 H680"/>
    </g>
    <g fill="#A9D6E5">
    <circle cx="150" cy="150" r="14"/>
    <circle cx="150" cy="250" r="14"/><circle cx="150" cy="290" r="14"/>
    <circle cx="150" cy="350" r="14"/><circle cx="150" cy="390" r="14"/>
    <circle cx="150" cy="490" r="14"/>
    <circle cx="1130" cy="150" r="14"/>
    <circle cx="1130" cy="250" r="14"/><circle cx="1130" cy="290" r="14"/>
    <circle cx="1130" cy="350" r="14"/><circle cx="1130" cy="390" r="14"/>
    <circle cx="1130" cy="490" r="14"/>
    </g>
    <g fill="none" stroke="#A9D6E5" stroke-width="5" stroke-opacity="0.55">
    <circle cx="150" cy="190" r="12"/><circle cx="150" cy="450" r="12"/>
    <circle cx="1130" cy="190" r="12"/><circle cx="1130" cy="450" r="12"/>
    </g>
  </g>
  <!-- soft pool behind the type so the motif never runs through a letterform -->
  <rect width="1280" height="554" fill="url(#focus)"/>

  <text x="640" y="290" text-anchor="middle" font-family="'DejaVu Sans','Segoe UI',Verdana,sans-serif"
        font-size="146" font-weight="700"
        stroke="#0B1622" stroke-width="14" paint-order="stroke"><tspan fill="#FFFFFF">cfbseedR</tspan></text>

  <text x="640" y="355" text-anchor="middle" font-family="'DejaVu Sans','Segoe UI',Verdana,sans-serif"
        font-size="32" font-weight="600" fill="#A9D6E5"
        letter-spacing="3">SIMULATE &amp; EVALUATE COLLEGE FOOTBALL SEASONS</text>

  <rect x="0" y="554" width="1280" height="86" fill="#0B1622"/>
  <rect x="0" y="554" width="1280" height="4" fill="#FFB612"/>
  <text x="640" y="612" text-anchor="middle" font-family="'DejaVu Sans','Segoe UI',Verdana,sans-serif"
        font-size="32" font-weight="600" fill="#EEF2F6"
        letter-spacing="2">cfbseedR.sportsdataverse.org</text>
</svg>
